PathFileType	4	(X/Y/Z)	Walk8.trc
DataRate	CameraRate	NumFrames	NumMarkers	Units	OrigDataRate	OrigDataStartFrame	OrigNumFrames
200.000000	200.000000	8	61	mm	200.000000	448	735
Frame#	Times		RCAR		LToe		LMT5		RWRR		LTB4		LMT1		LTB1		LTB3		RWRU		LLFC		RACR1		LUA1		LFA1		LElbow		STRN		LCAR		RFHD		RTH3		LACR1		LASI		LWRU		RTB2		RLFC		C7		LPSI		LWRR		RToe		RMT1		RMT5		LFHD		RPSI		LMFC		RMFC		CLAV		RTH2		RTB1		LTH3		RTB4		RTB3		LTH2		RCAL		LTH1		RASI		LTH4		RFA1		LTB2		RLMAL		RMMAL		LBHD		RBHD		RElbow		RUA1		RTH4		RBack		LMMAL		RTH1		LCAL		T10		LElbowM		LLMAL		RElbowM
			X1	Y1	Z1	X2	Y2	Z2	X3	Y3	Z3	X4	Y4	Z4	X5	Y5	Z5	X6	Y6	Z6	X7	Y7	Z7	X8	Y8	Z8	X9	Y9	Z9	X10	Y10	Z10	X11	Y11	Z11	X12	Y12	Z12	X13	Y13	Z13	X14	Y14	Z14	X15	Y15	Z15	X16	Y16	Z16	X17	Y17	Z17	X18	Y18	Z18	X19	Y19	Z19	X20	Y20	Z20	X21	Y21	Z21	X22	Y22	Z22	X23	Y23	Z23	X24	Y24	Z24	X25	Y25	Z25	X26	Y26	Z26	X27	Y27	Z27	X28	Y28	Z28	X29	Y29	Z29	X30	Y30	Z30	X31	Y31	Z31	X32	Y32	Z32	X33	Y33	Z33	X34	Y34	Z34	X35	Y35	Z35	X36	Y36	Z36	X37	Y37	Z37	X38	Y38	Z38	X39	Y39	Z39	X40	Y40	Z40	X41	Y41	Z41	X42	Y42	Z42	X43	Y43	Z43	X44	Y44	Z44	X45	Y45	Z45	X46	Y46	Z46	X47	Y47	Z47	X48	Y48	Z48	X49	Y49	Z49	X50	Y50	Z50	X51	Y51	Z51	X52	Y52	Z52	X53	Y53	Z53	X54	Y54	Z54	X55	Y55	Z55	X56	Y56	Z56	X57	Y57	Z57	X58	Y58	Z58	X59	Y59	Z59	X60	Y60	Z60	X61	Y61	Z61

448	2.24	-174.95	852.69	369.45	-119.46	31.75	-38.937	-224.45	27.597	-107.82	-229.86	895.03	355.9	-275.35	279.01	-26.476	-174.36	45.967	-19.441	-261.78	362.6	-35.432	-285.39	194	-19.142	-156.24	889.38	306.17	-291.55	507.6	-145.5	-160.93	1504.9	204.47	-183.55	1368.7	-255.04	-106.16	1083.8	-306.67	-208.89	1200.7	-310.75	-54.269	1303.8	-1.8722	-33.002	934.18	-313.33	-26.969	1707.9	104.75	-109.1	664.84	209.35	-178.02	1548.6	-165.36	-148.04	1040.9	-160.71	-110.99	952.07	-319.89	-71.274	309.7	178.48	-63.323	545.24	202.09	-273.12	1573.9	32.543	-362.93	1094.3	-49.392	-44.37	969.33	-256.13	25.814	57.948	126.85	-20.843	72.019	110.16	-65.706	50.575	194.44	-18.559	1717.3	0.51137	-358.49	1082.3	59.657	-281.94	509.5	-3.0377	-76.146	528.92	57.105	-111.28	1479.2	2.6673	-93.319	768.8	215.21	-42.903	394.13	120.97	-251.78	653.23	-172.51	-70.144	311.38	116.74	-96.478	229.87	113.24	-187.11	737.25	-182.36	-238.96	94.382	113.19	-239.95	824.02	-205.58	-136.13	1050.9	156.97	-246.05	738.22	-189.92	-194.14	1034.3	329.65	-255.4	270.14	-86.692	-176.21	119.59	158.67	-137.88	141.27	67.477	-182.98	1708.2	-33.488	-198.47	1699.1	108	-263.14	1172.4	311.52	-200.92	1327	273.55	-146.45	740.22	216.04	-332.63	1457.2	143.75	-312.51	97.648	26.564	-185.03	820.13	220.47	-401.31	44.607	-26.984	-336.65	1220.7	3.0411	-245.87	1168.2	-229.01	-337.71	68.275	-71.245	-287.68	1149.8	220.5
449	2.245	-171.32	852.14	369.25	-119.36	31.733	-39.024	-224.49	27.518	-107.88	-226.15	894.58	355.74	-274.12	278.74	-26.388	-174.31	45.971	-19.414	-260.14	362.25	-35.319	-284.6	193.77	-19.071	-152.57	888.86	306.03	-289.23	507.45	-145.27	-156.16	1504.4	204.47	-178.49	1368.1	-254.92	-100.52	1083.4	-306.12	-203.42	1200.1	-310.5	-49.578	1303.4	-1.807	-27.106	933.8	-312.47	-22.332	1707.4	104.95	-103.63	664.56	209.76	-173.28	1548.1	-165.29	-143.22	1040.2	-160.63	-105.13	951.6	-319.26	-59.826	308.94	178.63	-57.432	544.7	202.36	-268.38	1573.4	32.598	-358.09	1093.8	-49.184	-38.713	968.99	-255.33	43.778	59.823	127.09	-3.1397	72.629	110.35	-47.696	50.091	194.45	-13.894	1717	0.71326	-353.51	1081.7	59.827	-279.62	509.35	-2.8209	-70.14	528.36	57.283	-106.52	1478.7	2.7489	-88.009	768.59	215.78	-33.448	394.08	121.21	-248.63	652.91	-172.27	-58.529	310.66	116.86	-82.736	228.51	113.3	-183.57	736.64	-181.91	-221.78	89.415	112.78	-235.88	823.62	-205.43	-131.19	1050.3	157.29	-242.42	737.87	-189.78	-190.23	1033.8	329.52	-254.36	269.77	-86.592	-159.82	116.16	158.43	-121.79	138.92	67.365	-178.3	1707.7	-33.333	-193.82	1698.6	108.15	-259.01	1172	311.46	-196.52	1326.5	273.57	-141.11	739.87	216.57	-327.91	1456.7	143.72	-312.3	97.543	26.653	-179.88	819.73	220.95	-401.27	44.7	-26.943	-331.73	1220.1	3.1764	-240.51	1167.6	-228.82	-337.64	68.295	-71.171	-283.59	1149.5	220.42
450	2.25	-167.62	851.55	369.06	-119.27	31.717	-39.118	-224.53	27.442	-107.95	-222.38	894.09	355.59	-272.88	278.47	-26.295	-174.25	45.973	-19.386	-258.49	361.9	-35.197	-283.81	193.54	-18.998	-148.85	888.3	305.9	-286.9	507.3	-145.03	-151.38	1503.8	204.48	-173.42	1367.6	-254.78	-94.898	1082.9	-305.56	-197.95	1199.4	-310.23	-44.858	1302.9	-1.7281	-21.231	933.36	-311.57	-17.693	1707	105.16	-98.298	664.17	210.15	-168.53	1547.6	-165.22	-138.34	1039.6	-160.55	-99.284	951.08	-318.61	-48.426	308.24	178.8	-51.665	544.06	202.64	-263.63	1572.9	32.659	-353.22	1093.3	-48.959	-33.082	968.6	-254.52	61.628	61.878	127.31	14.476	73.428	110.53	-29.707	49.795	194.48	-9.2278	1716.6	0.92102	-348.5	1081	60.011	-277.28	509.19	-2.5908	-64.218	527.71	57.451	-101.74	1478.2	2.8402	-82.806	768.25	216.4	-24.107	394.03	121.46	-245.44	652.58	-172.02	-47.004	310	117	-69.057	227.26	113.38	-180	736.02	-181.43	-204.55	84.641	112.48	-231.78	823.21	-205.28	-126.24	1049.7	157.64	-238.76	737.52	-189.62	-186.27	1033.3	329.41	-253.3	269.41	-86.491	-143.4	112.91	158.27	-105.73	136.73	67.307	-173.61	1707.2	-33.173	-189.17	1698.1	108.3	-254.83	1171.6	311.42	-192.09	1326.1	273.61	-135.9	739.43	217.07	-323.19	1456.2	143.71	-312.09	97.436	26.741	-174.81	819.24	221.4	-401.23	44.801	-26.903	-326.79	1219.5	3.3352	-235.17	1167	-228.62	-337.56	68.32	-71.091	-279.46	1149.2	220.35
451	2.255	-163.87	850.94	368.88	-119.17	31.701	-39.216	-224.57	27.372	-108.02	-218.54	893.57	355.45	-271.63	278.18	-26.196	-174.19	45.972	-19.356	-256.83	361.53	-35.066	-283.01	193.3	-18.92	-145.06	887.72	305.78	-284.54	507.14	-144.78	-146.58	1503.2	204.5	-168.34	1367	-254.62	-89.292	1082.3	-304.97	-192.49	1198.7	-309.96	-40.109	1302.3	-1.6351	-15.379	932.88	-310.66	-13.048	1706.5	105.38	-93.106	663.67	210.53	-163.77	1547	-165.14	-133.41	1039	-160.45	-93.462	950.51	-317.94	-37.076	307.6	178.98	-46.019	543.33	202.92	-258.86	1572.3	32.728	-348.33	1092.8	-48.716	-27.474	968.17	-253.68	79.349	64.115	127.48	31.988	74.416	110.7	-11.748	49.694	194.51	-4.5591	1716.1	1.1345	-343.47	1080.3	60.21	-274.92	509.02	-2.347	-58.386	526.97	57.603	-96.955	1477.7	2.9416	-77.714	767.78	217.04	-14.889	393.98	121.71	-242.24	652.22	-171.76	-35.58	309.4	117.15	-55.454	226.13	113.49	-176.41	735.38	-180.93	-187.27	80.072	112.3	-227.67	822.77	-205.11	-121.28	1049.1	157.99	-235.07	737.15	-189.47	-182.25	1032.7	329.31	-252.24	269.04	-86.386	-126.96	109.84	158.19	-89.713	134.72	67.31	-168.92	1706.7	-33.008	-184.52	1697.5	108.45	-250.61	1171.2	311.38	-187.64	1325.5	273.66	-130.82	738.89	217.53	-318.45	1455.7	143.71	-311.87	97.328	26.83	-169.82	818.67	221.84	-401.19	44.907	-26.863	-321.83	1218.9	3.5192	-229.85	1166.3	-228.41	-337.49	68.352	-71.007	-275.28	1148.8	220.29
452	2.26	-160.05	850.3	368.73	-119.07	31.683	-39.316	-224.6	27.306	-108.09	-214.66	893.02	355.32	-270.37	277.89	-26.09	-174.13	45.969	-19.326	-255.15	361.16	-34.923	-282.21	193.06	-18.836	-141.21	887.1	305.67	-282.15	506.98	-144.52	-141.78	1502.7	204.52	-163.25	1366.3	-254.45	-83.701	1081.7	-304.36	-187.03	1198	-309.67	-35.332	1301.8	-1.5273	-9.5504	932.35	-309.72	-8.3954	1706	105.61	-88.056	663.07	210.88	-159	1546.4	-165.05	-128.45	1038.4	-160.34	-87.663	949.9	-317.26	-25.782	307.02	179.17	-40.491	542.51	203.2	-254.09	1571.7	32.806	-343.42	1092.2	-48.45	-21.889	967.68	-252.83	96.925	66.531	127.59	49.378	75.593	110.84	6.1717	49.791	194.56	0.11429	1715.7	1.3537	-338.42	1079.6	60.43	-272.54	508.84	-2.0889	-52.646	526.13	57.734	-92.151	1477.2	3.0533	-72.734	767.19	217.72	-5.8008	393.95	121.96	-239	651.86	-171.48	-24.265	308.87	117.33	-41.942	225.11	113.63	-172.8	734.73	-180.39	-169.97	75.717	112.25	-223.52	822.32	-204.93	-116.29	1048.4	158.35	-231.35	736.76	-189.3	-178.19	1032.1	329.23	-251.16	268.67	-86.275	-110.5	106.96	158.21	-73.774	132.88	67.38	-164.22	1706.2	-32.838	-179.86	1696.9	108.61	-246.35	1170.7	311.35	-183.16	1325	273.72	-125.86	738.26	217.96	-313.69	1455.1	143.72	-311.66	97.219	26.919	-164.92	818.02	222.25	-401.15	45.019	-26.821	-316.85	1218.3	3.7295	-224.54	1165.5	-228.19	-337.4	68.392	-70.918	-271.04	1148.4	220.25
453	2.265	-156.18	849.63	368.6	-118.97	31.662	-39.415	-224.63	27.244	-108.16	-210.71	892.44	355.2	-269.1	277.58	-25.975	-174.07	45.963	-19.295	-253.45	360.77	-34.765	-281.41	192.81	-18.742	-137.3	886.45	305.56	-279.72	506.8	-144.24	-136.96	1502	204.57	-158.16	1365.6	-254.27	-78.128	1081.1	-303.73	-181.59	1197.2	-309.36	-30.531	1301.2	-1.404	-3.7484	931.77	-308.76	-3.7345	1705.5	105.84	-83.148	662.36	211.22	-154.21	1545.8	-164.94	-123.46	1037.8	-160.2	-81.888	949.24	-316.56	-14.548	306.52	179.37	-35.077	541.6	203.48	-249.3	1571.1	32.894	-338.48	1091.6	-48.159	-16.328	967.15	-251.96	114.34	69.125	127.64	66.624	76.956	110.95	24.04	50.093	194.61	4.7944	1715.2	1.5789	-333.34	1078.9	60.672	-270.12	508.65	-1.8163	-47	525.21	57.84	-87.332	1476.6	3.1756	-67.867	766.46	218.43	3.1529	393.91	122.2	-235.72	651.48	-171.18	-13.069	308.4	117.52	-28.532	224.22	113.8	-169.16	734.06	-179.84	-152.66	71.585	112.36	-219.35	821.84	-204.73	-111.27	1047.7	158.71	-227.6	736.37	-189.13	-174.08	1031.5	329.17	-250.05	268.3	-86.155	-94.051	104.28	158.33	-57.931	131.21	67.523	-159.52	1705.6	-32.66	-175.19	1696.2	108.77	-242.04	1170.2	311.34	-178.66	1324.4	273.81	-121.03	737.53	218.35	-308.93	1454.5	143.75	-311.44	97.111	27.009	-160.1	817.28	222.63	-401.1	45.136	-26.778	-311.85	1217.6	3.9674	-219.24	1164.8	-227.96	-337.3	68.44	-70.824	-266.74	1148	220.22
454	2.27	-152.25	848.93	368.49	-118.86	31.637	-39.512	-224.65	27.188	-108.22	-206.71	891.83	355.09	-267.81	277.26	-25.847	-174	45.956	-19.266	-251.73	360.36	-34.593	-280.6	192.56	-18.639	-133.33	885.77	305.47	-277.25	506.61	-143.95	-132.14	1501.4	204.63	-153.05	1364.9	-254.06	-72.572	1080.4	-303.08	-176.14	1196.4	-309.04	-25.706	1300.6	-1.2647	2.0256	931.15	-307.79	0.93621	1705	106.07	-78.382	661.54	211.53	-149.42	1545.1	-164.83	-118.45	1037.1	-160.04	-76.138	948.54	-315.84	-3.382	306.11	179.58	-29.773	540.61	203.74	-244.5	1570.4	32.992	-333.52	1091	-47.841	-10.79	966.57	-251.07	131.57	71.894	127.6	83.707	78.502	111.03	41.842	50.603	194.66	9.483	1714.7	1.8101	-328.24	1078.1	60.941	-267.67	508.45	-1.5291	-41.45	524.2	57.916	-82.498	1476	3.3089	-63.111	765.61	219.16	11.967	393.89	122.42	-232.41	651.08	-170.88	-1.9985	307.99	117.73	-15.24	223.45	114	-165.5	733.37	-179.26	-135.38	67.684	112.63	-215.16	821.34	-204.51	-106.23	1047	159.06	-223.81	735.96	-188.96	-169.91	1030.9	329.12	-248.93	267.91	-86.022	-77.621	101.8	158.56	-42.207	129.72	67.744	-154.81	1705	-32.475	-170.51	1695.6	108.94	-237.68	1169.6	311.34	-174.13	1323.8	273.9	-116.32	736.7	218.69	-304.15	1453.8	143.79	-311.22	97.002	27.101	-155.36	816.45	222.99	-401.06	45.258	-26.731	-306.83	1216.8	4.2345	-213.95	1163.9	-227.72	-337.2	68.496	-70.726	-262.39	1147.5	220.2
455	2.275	-148.26	848.2	368.39	-118.75	31.608	-39.604	-224.67	27.136	-108.28	-202.65	891.19	355	-266.51	276.94	-25.706	-173.93	45.948	-19.238	-249.99	359.95	-34.405	-279.78	192.3	-18.525	-129.3	885.06	305.4	-274.74	506.41	-143.64	-127.31	1500.8	204.7	-147.95	1364.1	-253.84	-67.034	1079.6	-302.42	-170.71	1195.5	-308.71	-20.858	1300	-1.1092	7.7695	930.49	-306.81	5.6173	1704.4	106.31	-73.758	660.62	211.81	-144.62	1544.4	-164.72	-113.42	1036.5	-159.87	-70.414	947.8	-315.11	7.7082	305.77	179.8	-24.576	539.53	203.99	-239.69	1569.7	33.104	-328.54	1090.3	-47.492	-5.275	965.95	-250.16	148.6	74.834	127.48	100.6	80.227	111.06	59.56	51.324	194.72	14.182	1714.2	2.0474	-323.12	1077.3	61.239	-265.18	508.23	-1.2273	-35.997	523.11	57.958	-77.648	1475.4	3.454	-58.465	764.63	219.91	20.64	393.87	122.64	-229.06	650.67	-170.55	8.9379	307.65	117.96	-2.0762	222.8	114.25	-161.81	732.66	-178.66	-118.15	64.02	113.08	-210.94	820.82	-204.28	-101.14	1046.2	159.4	-219.99	735.54	-188.77	-165.69	1030.2	329.1	-247.79	267.52	-85.877	-61.23	99.548	158.9	-26.627	128.39	68.047	-150.09	1704.3	-32.282	-165.81	1694.9	109.11	-233.29	1169.1	311.35	-169.57	1323.2	274.02	-111.72	735.78	218.98	-299.35	1453.1	143.85	-310.99	96.894	27.193	-150.71	815.54	223.31	-401.01	45.385	-26.68	-301.79	1216.1	4.5321	-208.68	1163.1	-227.46	-337.09	68.562	-70.624	-257.98	1147	220.2
